<?xml version="1.0" standalone="no"?>
<!DOCTYPE svg PUBLIC "-//W3C//DTD SVG 20010904//EN"
 "http://www.w3.org/TR/2001/REC-SVG-20010904/DTD/svg10.dtd">
<svg version="1.0" xmlns="http://www.w3.org/2000/svg"
 width="700.000000pt" height="700.000000pt" viewBox="0 0 700.000000 700.000000"
 preserveAspectRatio="xMidYMid meet">
<metadata>
Created by potrace 1.14, written by Peter Selinger 2001-2017
</metadata>
<g transform="translate(0.000000,700.000000) scale(0.100000,-0.100000)"
fill="#000000" stroke="none">
<path d="M5000 6579 c-25 -4 -56 -9 -70 -12 -26 -5 -216 -60 -610 -178 -58
-17 -125 -37 -150 -44 -25 -7 -124 -37 -220 -65 -272 -80 -312 -92 -350 -97
-19 -3 -46 -11 -60 -18 -25 -13 -86 -32 -420 -131 -102 -31 -223 -67 -270 -81
-47 -14 -98 -29 -115 -33 -16 -5 -77 -23 -135 -40 -58 -17 -121 -36 -140 -42
-19 -5 -163 -48 -320 -95 -157 -46 -321 -95 -365 -108 -383 -111 -814 -240
-860 -257 -218 -80 -368 -229 -447 -443 -48 -128 -61 -233 -47 -360 12 -105
13 -107 99 -335 35 -91 71 -187 81 -215 9 -27 34 -93 56 -145 l38 -95 5 -1235
5 -1235 28 -80 c36 -101 75 -175 132 -247 87 -111 239 -216 366 -252 31 -9 67
-20 80 -24 13 -4 989 -8 2169 -9 2355 -2 2203 -5 2357 58 220 92 380 281 442
526 20 76 20 111 21 1306 0 1192 0 1230 -19 1272 -13 29 -34 53 -62 72 l-43
28 -2027 0 c-1116 0 -2025 3 -2021 6 4 3 95 31 202 62 107 31 234 67 283 81
48 14 97 26 108 26 11 0 41 9 67 20 39 16 284 90 397 120 17 5 109 31 205 60
96 28 252 73 345 100 94 27 217 63 275 81 117 35 168 49 385 109 83 23 170 48
195 56 61 20 181 56 400 119 102 30 246 72 320 93 74 22 248 72 385 112 138
40 267 82 288 93 50 28 89 105 81 162 -2 22 -22 96 -44 165 -22 69 -78 250
-125 403 -94 303 -96 309 -139 382 -105 177 -282 304 -487 349 -83 19 -202 25
-269 15z m225 -364 c91 -26 181 -96 230 -180 19 -31 121 -345 206 -630 11 -36
8 -38 -61 -58 -59 -16 -376 -108 -525 -152 -49 -14 -175 -51 -280 -81 -104
-30 -195 -57 -202 -59 -7 -2 -86 91 -175 206 -90 116 -192 248 -228 293 -36
45 -76 98 -90 116 -14 18 -60 78 -103 134 -76 97 -78 101 -55 108 37 12 772
230 783 232 6 1 44 13 85 25 223 69 303 77 415 46z m-1508 -621 c81 -105 157
-204 168 -219 18 -24 32 -42 82 -105 7 -8 58 -73 113 -145 55 -71 107 -138
115 -148 8 -9 15 -21 15 -25 0 -5 -91 -35 -202 -66 -112 -32 -214 -62 -228
-67 -21 -7 -340 -101 -390 -114 -8 -2 -148 -43 -310 -90 -162 -47 -300 -84
-306 -83 -6 2 -160 190 -342 418 l-330 415 52 16 c28 9 83 26 121 37 175 52
485 144 535 158 30 9 66 20 80 24 14 5 57 18 95 29 39 11 183 54 320 95 138
41 253 71 257 67 3 -3 73 -92 155 -197z m-1817 -536 c88 -112 166 -210 173
-218 7 -8 28 -35 47 -60 19 -24 40 -50 45 -56 6 -6 24 -28 40 -50 17 -21 67
-85 113 -142 46 -58 80 -108 75 -112 -4 -4 -55 -21 -113 -38 -200 -59 -426
-124 -575 -167 -82 -24 -275 -80 -429 -124 -153 -45 -283 -80 -288 -79 -5 2
-41 87 -79 188 -39 102 -79 210 -91 240 -54 143 -64 232 -37 334 13 51 50 126
61 126 4 0 8 4 8 10 0 17 43 60 95 94 48 32 87 47 255 96 41 12 176 53 300 90
124 37 228 68 232 69 4 0 79 -90 168 -201z m4050 -2554 c0 -1060 -1 -1115 -19
-1167 -47 -135 -137 -222 -280 -272 -38 -13 -300 -15 -2145 -15 -1887 0 -2108
2 -2157 16 -134 39 -233 135 -280 272 -18 52 -19 104 -19 1166 l0 1112 2450 0
2450 0 0 -1112z"/>
</g>
</svg>
